<svg xmlns="http://www.w3.org/2000/svg" viewBox="0 0 128 128" version="1.0"><path d="M52.971 5.732c-2.142.56-3.967 1.3-11.133 4.458-3.528 1.568-7.318 3.398-8.433 4.017-4.644 2.748-8.932 6.914-12.609 12.292-3.582 5.255-5.138 8.889-6.637 15.624-.913 4.107-1.322 5.021-3.291 7.414C3.964 57.867.085 70.538 2.435 77.273c2.881 8.359 6.463 15.979 9.316 19.817 2.7 3.632 7.021 8.684 8.843 10.368 3.202 2.953 13.837 7.15 21.683 8.509 2.527.44 4.348 1.24 8.345 3.632 1.144.68 2.851 1.419 3.818 1.654 2.26.59 7.551 1.004 15.132 1.24 6.76.209 8.99-.06 14.838-1.715 10.431-2.922 15.164-5.43 21.86-11.487 6.79-6.146 9.904-10.812 12.811-19.171.765-2.184 1.82-4.727 2.349-5.612 1.44-2.453 2.911-5.495 3.824-7.974.67-1.863.819-2.838.967-6.116.178-4.901-.35-8.063-2.29-14-4.938-14.975-15.193-30.514-24.095-36.509-3.115-2.095-9.401-5.732-12.485-7.236-1.471-.68-2.675-1.359-2.735-1.48-.058-.144-.616-.233-1.233-.233-1.352 0-4.905-1.065-5.053-1.505-.06-.179-1.293-.65-2.734-1.004-1.47-.385-4.496-1.184-6.756-1.773-3.879-1.035-4.411-1.125-9.257-1.21-3.553-.06-5.58 0-6.613.264zm12.342 3.723c-.322.145-1.441.355-2.498.44-6.375.68-11.986 2.334-17.775 5.23-5.023 2.51-8.848 5.168-12.342 8.685-3.025 3.013-9.079 10.219-13.456 16.01-1.618 2.153-2.966 3.927-2.996 3.927-.059 0 .292-1.21.76-2.658.474-1.48.855-3.134.855-3.723 0-.915-.089-1.034-.588-.854-.325.085-.587.085-.587-.06 0-.416 3.494-6.617 5.17-9.129 3.174-4.812 9.255-10.458 11.282-10.458.473 0 1.737-.619 3.115-1.533 4.114-2.689 5.555-3.159 13.282-4.344 2.055-.324 5.789-.798 8.285-1.063 2.499-.265 4.818-.5 5.143-.56.322-.06 1.116-.12 1.762-.12.883-.03 1.027.031.588.21zm-9.638 3.543c-6.228 2.513-11.281 6.23-21.215 15.654-5.462 5.2-7.254 6.56-3.232 2.454 1.762-1.834 3.055-3.309 2.853-3.309-.208 0-1.323.65-2.498 1.415-1.174.798-2.412 1.598-2.793 1.804-.676.354-.676.354-.32-.325 1.145-2.154 7.87-8.095 13.072-11.518 5.201-3.427 8.404-4.996 13.196-6.47 3.818-1.184 4.287-1.034.937.295zm24.358.68c4.643 1.389 14.63 7.12 17.217 9.893l.676.74-1.028-.446c-.557-.234-2.585-1.18-4.465-2.094-3.38-1.623-4.436-1.918-4.791-1.359-.262.416-1.94.355-5.61-.209-2.117-.325-5.084-.47-8.785-.5-5.496 0-7.728.205-14.72 1.33-1.969.325-4.94.678-6.612.825-2.734.207-3.38.384-5.996 1.567-1.614.74-3.262 1.444-3.672 1.565l-.736.209.736-.77c.38-.443 1.85-1.593 3.262-2.542 3.025-2.094 3.584-2.598 3.38-3.129-.324-.859 3.702-3.457 7.314-4.696 2.438-.829 4.91-1.004 13.813-.889 6.434.06 8.871.18 10.017.504zm-2.586 7.355c5.788.619 12.43 2.538 16.6 4.786 10.492 5.612 20.217 21.205 21.214 34.026.208 2.748-.262 11.667-.735 14.03-.909 4.372-3.76 8.3-11.34 15.625-11.636 11.222-19.215 15.21-33.758 17.753-2.235.415-4.056.56-4.94.444-1.085-.12-1.406-.09-1.322.205.414 1.18 6.232 1.005 11.403-.325 4.699-1.214 8.548-2.658 13.516-5.08 6.52-3.19 8.227-4.463 15.896-12.023l6.814-6.705-1.114 2.069c-5.084 9.364-9.579 14.56-16.66 19.257-4.703 3.102-9.815 5.287-16.985 7.24-2.38.65-2.937.678-11.31.619-4.846-.03-9.757-.15-10.932-.24l-2.116-.205-4.584-3.987c-2.527-2.184-4.521-4.047-4.437-4.136.06-.086.884.029 1.795.208 1.645.356 2.291.235 1.733-.265-.148-.149-1.821-.828-3.731-1.538-1.91-.68-4.057-1.624-4.79-2.098-1.703-1.15-5.848-5.612-7.67-8.27-2.2-3.188-7.815-12.551-9.138-15.21-1.264-2.542-3.202-7.65-4.14-10.871-.795-2.72-1.501-8.359-1.501-11.783 0-3.072.47-4.343 2.585-6.975 3.672-4.517 11.784-12.107 15.19-14.175 5.645-3.428 15.485-7.859 20.893-9.423 9.9-2.864 16.66-3.722 23.563-2.954zM9.308 63.624c-.38 7.593-.084 10.457 1.352 14.15 1.618 4.076 3.529 7.324 4.322 7.324.588 0 .086-1.448-1.706-4.872-1.969-3.752-2.438-5.08-.676-2.008 1.44 2.598 5.467 8.533 6.671 9.893.938 1.034 6.169 5.436 11.31 9.513 1.56 1.21 2.207 2.064 4.468 5.817 2.555 4.256 4.232 6.705 6.493 9.333l1.086 1.27H41.19c-4.969 0-15.81-4.753-20.834-9.155-3.464-3.013-7.61-9.128-12.075-17.872-1.969-3.838-2.527-5.197-2.877-7.205-.883-4.697-.474-10.219 1.145-15.185.736-2.273 2.789-7.085 2.966-6.91.03.03-.06 2.688-.208 5.906zm114.21-2.983c.883 1.683 1.292 3.84 1.47 7.623.236 5.048-.089 6.792-2.117 10.868-.908 1.834-1.703 3.309-1.732 3.248-.06-.06.088-2.688.32-5.846.207-3.162.415-7.295.415-9.158 0-4.018.498-7.68 1.027-7.68.088 0 .354.445.616.945zM12.866 64.57c.908 8.061 2.817 13.586 7.49 21.71l.765 1.33-.765-.888c-1.585-1.83-4.2-6.026-5.112-8.21-1.703-4.138-3.025-9.923-3.173-14.091-.178-4.546.266-4.486.794.15zm5.023 10.544c.942 2.483 1.94 5.142 2.176 5.966l.44 1.45-.765-.71c-1.645-1.535-4.673-9.04-4.994-12.347l-.149-1.654.765 1.419c.41.766 1.559 3.423 2.527 5.876zm89.436 23.63c-3.316 3.131-5.813 5.11-9.252 7.413-3.32 2.215-6.815 4.048-7.757 4.048-.559 0-.559 0 0-.62.794-.914 3.67-2.923 6.73-4.697 3.346-1.979 7.022-4.521 9.84-6.765 1.204-.974 2.294-1.684 2.409-1.624.147.09-.76 1.094-1.969 2.243zm-43.514 15.448c3.38.265 6.346.59 6.583.71.44.234-1.086.739-3.32 1.064-1.704.264-5.962-.325-8.755-1.215-2.734-.884-3.642-1.444-1.822-1.178.647.09 3.938.384 7.314.62zm0 0"/></svg>
