<svg xmlns="http://www.w3.org/2000/svg" viewBox="0 0 128 128" version="1.0"><path d="M19.82 44.393a13.14 13.14 0 0 0-2 .734c-.594.27-1.762.78-2.594 1.133-2.605 1.086-4.336 2.426-5.918 4.598-1.535 2.074-2.175 3.51-2.671 6.035-.258 1.26-.352 1.468-1.024 2.218-2.176 2.473-3.617 6.672-3.06 8.938.228.863 1.54 4.105 2.275 5.574.574 1.18 3.52 4.758 4.398 5.364 1.504 1.039 5.09 2.316 7.266 2.6.594.067 1.152.29 1.695.64 1.809 1.18 2.016 1.244 4.864 1.42 4.496.273 5.027.242 7.875-.59 3.613-1.055 5.086-1.9 7.628-4.324 1.954-1.887 3.008-3.563 3.747-5.957.222-.72.543-1.516.718-1.754.563-.785 1.313-2.414 1.55-3.356.61-2.344-.03-5.441-2.03-9.625-1.742-3.656-4.305-7.12-6.414-8.62-1.266-.911-4.9-2.97-5.106-2.907-.078.015-.13-.031-.13-.13 0-.077-.108-.093-.27-.046-.174.066-.225.047-.143-.078.063-.13.032-.16-.113-.098-.285.098-2.094-.398-1.95-.543.063-.062-.273-.191-.753-.285a34.676 34.676 0 0 1-2.29-.61c-1.788-.542-4.19-.683-5.55-.331zm4.512 1.18c-.13.078-.735.19-1.36.238-3.585.35-7.234 2.027-9.886 4.535-.977.926-4.227 4.836-5.22 6.273-.304.434-.573.75-.604.72-.051-.048.062-.481.253-.974.192-.496.336-1.07.336-1.308 0-.336-.03-.383-.238-.207-.13.11-.242.14-.242.062 0-.336 1.379-2.761 2.144-3.8 1.329-1.77 3.168-3.32 3.618-3.047.078.046.543-.192 1.007-.543.465-.352 1.153-.75 1.504-.88.832-.288 3.215-.687 5.809-.956 2.445-.274 3.215-.305 2.879-.114zm-3.152 1.116c-2.32.796-4.336 2.265-8.176 5.988-.895.86-1.696 1.53-1.758 1.453-.066-.066.46-.656 1.168-1.328 1.344-1.258 1.344-1.293-.067-.316-.48.332-.894.574-.945.527-.285-.29 1.633-2.188 3.684-3.64 1.98-1.407 3.597-2.235 5.246-2.731 1.84-.543 2.48-.496.848.047zm7.84.254c1.535.402 4.656 2.14 5.84 3.273.624.594.273.543-1.102-.16-1.7-.86-2.082-1.004-2.02-.766.035.223-.652.207-2.445-.062-2.031-.305-4.465-.207-7.25.27-1.39.24-2.703.382-2.91.335-.274-.062-.801.113-1.746.574-2.125 1.055-1.965.48.273-.941.61-.383.863-.621.719-.703-.4-.254 1.488-1.418 2.93-1.8 1.23-.337 6.464-.337 7.71-.02zm.738 2.73c2.03.418 3.71 1.055 4.91 1.852 2.8 1.87 5.265 5.62 6.176 9.39.273 1.149.304 1.707.242 3.672-.13 3.91-.45 4.547-3.922 7.934-3.617 3.543-6.078 4.98-10.113 5.875-1.65.367-2.688.527-3.184.46-.543-.046-.656-.03-.414.083 1.68.797 7.793-1.153 11.039-3.512.352-.258 1.68-1.504 2.945-2.746l2.3-2.27-.702 1.328c-2.445 4.66-6.11 7.454-11.375 8.684-1.281.3-1.695.32-4.832.207l-3.426-.113-1.566-1.356c-2.016-1.722-2-1.707-1.504-1.597 1.633.382 1.664.242.082-.301-1.715-.594-1.793-.64-2.992-1.836a15.08 15.08 0 0 1-2.258-2.973c-.574-.941-1.36-2.25-1.762-2.886-.765-1.247-1.695-3.58-2.11-5.301-.128-.574-.288-1.774-.335-2.668-.113-1.61-.113-1.63.398-2.52.48-.847 2.594-3.02 4.657-4.793.914-.765 4.03-2.36 6.558-3.351 1.41-.543 4.242-1.246 6.16-1.5 1.38-.192 3.395-.094 5.028.238zm-19.746 6.134c-.43.43-.864.797-.961.797-.16-.016 1.472-1.598 1.648-1.598.05 0-.254.352-.687.8zm-4.88 6.465c-.081.43-.144 1.757-.144 2.906-.016 1.85.03 2.234.367 3.129.61 1.644 1.41 3 1.633 2.777.047-.047-.176-.59-.527-1.18-.563-.976-1.008-1.996-1.008-2.27 0-.046.238.337.527.864.625 1.149 2 3.192 2.528 3.75.207.227.67.625 1.023.88.352.253 1.219.956 1.906 1.55.688.605 1.313 1.082 1.375 1.082.063 0 .528.754 1.04 1.66.495.93 1.312 2.11 1.792 2.637l.88.972h-.512c-1.391 0-4.223-1.02-6-2.156-1.84-1.164-2.672-2.152-4.43-5.172-.9-1.53-1.715-3.13-1.824-3.543-.657-2.523-.336-5.093.992-7.886.238-.496.445-.864.46-.848.036.035-.015.402-.077.848zm1.137 2.234c.32 2.586 1.102 4.742 2.496 6.93.3.46.528.879.497.91-.13.11-1.618-1.902-2.067-2.793-.512-1.008-1.2-3.516-1.36-4.902a6.168 6.168 0 0 1 .032-1.614c.082-.527.145-.636.176-.367.035.223.129 1.04.226 1.836zm37.856-1.164c.207.62.289 1.309.289 2.617 0 1.758 0 1.774-.692 3.16-.382.766-.718 1.375-.75 1.344-.03-.035 0-.734.079-1.566.082-.828.16-2.172.16-2.97 0-2.073.16-3.417.418-3.417.11 0 .336.383.496.832zm-40.578 1.37c-.192.786-.336 1.63-.336 1.888 0 .734-.176 1.242-.336.988-.352-.543-.031-2.555.61-3.926.398-.847.413-.48.062 1.05zm4.289 2.716c.433 1.07.832 2.172.894 2.457l.114.527-.336-.3c-.688-.625-1.778-3.403-1.778-4.551 0-.657.258-.223 1.106 1.867zM41.1 72.615c-.37 1.102-1.394 2.493-1.906 2.57-.144.016-.703.466-1.23 1.009-1.442 1.468-4.72 3.558-5.551 3.558-.258-.016-.18-.13.398-.637a11.391 11.391 0 0 1 1.52-1.054c1.664-.895 3.87-2.457 4.734-3.352.48-.527 1.203-1.453 1.586-2.094.399-.62.735-1.132.75-1.101.02.015-.11.512-.3 1.1zm.368 1.407c-.32.828-.993 1.93-1.122 1.82-.16-.176 1.122-2.633 1.36-2.633.03 0-.078.367-.238.813zm-17.537 6.945c2.063.125 2.512.27 1.582.527-.96.27-2.238.207-3.566-.16-1.555-.433-1.855-.703-.656-.574.48.062 1.68.14 2.64.207zm-5.393-3.02c.113.05.258.036.305-.015.062-.047-.032-.094-.207-.078-.176 0-.223.047-.098.093zm4.16.802c.113.046.258.03.305-.016.062-.051-.032-.098-.207-.082-.176 0-.227.046-.098.097zm16.433-3.93c-.066.097-.081.19-.03.242.03.047.109-.035.16-.176.109-.273.015-.32-.13-.066zM73.05 49.342a57.51 57.51 0 0 1-1.313.223c-.031.015-.047 5.074-.047 11.27v11.273l1.809-.051 1.793-.047.047-5.7.03-5.698.626-.481c1.055-.844 2.016-1.18 3.09-1.102 1.1.082 1.664.434 2.125 1.344.304.574.32.988.37 6.176l.048 5.559 1.793-.051 1.789-.047V60.037l-.446-.976c-.546-1.18-1.503-2.153-2.593-2.633-1.215-.543-3.215-.512-4.48.082-.528.238-1.231.637-1.552.89-.32.274-.625.48-.671.48-.047 0-.114-1.964-.13-4.36l-.046-4.34-.48-.033c-.258 0-1.055.082-1.762.195zm46.882 2.344c-.53.082-1.043.242-1.152.336-.16.16-.848 3.879-.848 4.55 0 .094-.418.207-.93.27-.511.05-1.023.16-1.12.227-.16.093-.832 2.074-.832 2.44 0 .063.625.145 1.41.16l1.39.048.082 4.87c.063 4.294.11 4.95.383 5.556.352.812 1.313 1.676 2.16 1.914 1.39.418 3.97.113 4.817-.574.35-.286.35-.286.078-1.278-.352-1.246-.512-1.37-1.246-1.07-.9.367-1.586.305-2.047-.176l-.387-.414v-8.828l1.762-.047c1.152-.031 1.793-.113 1.87-.242.064-.11.13-.652.13-1.227 0-.574-.066-1.117-.13-1.23-.077-.13-.718-.207-1.87-.238l-1.762-.047-.047-2.477c-.03-2.41-.113-2.746-.593-2.7-.08.017-.59.099-1.118.177zm-59.265 4.457c-2.016.347-3.65 1.515-4.367 3.094-.29.656-.368 1.085-.368 2.316 0 1.308.063 1.644.414 2.41a6.878 6.878 0 0 0 1.106 1.55l.672.638-.594.543c-.336.289-.703.75-.816 1.039-.461 1.1-.145 2.648.656 3.175l.418.27-.832.734c-1.953 1.696-2.113 4.168-.367 5.766 1.328 1.21 3.246 1.707 6.015 1.547 4.719-.285 7.489-2.426 7.489-5.793 0-2.7-1.555-3.625-6.48-3.914-3.235-.176-3.52-.223-3.84-.668-.352-.512-.29-.88.206-1.39.45-.43.496-.446 1.809-.368 3.023.176 5.375-.957 6.367-3.063.496-1.04.625-3.02.29-4.12-.243-.766-.243-.766.144-.926.222-.08.527-.145.687-.145.656 0 .832-.352.78-1.516-.045-1.054-.077-1.117-.444-1.164-.547-.082-1.441.207-2.176.7l-.625.433-.558-.336c-1.328-.75-3.86-1.133-5.586-.812zm3.183 2.886c.528.274.817.56 1.09 1.086.735 1.485.254 3.274-1.09 3.946-1.472.75-3.535.3-4.238-.91-.465-.817-.45-2.426.047-3.227.754-1.195 2.734-1.63 4.19-.895zm1.266 13.395c1.168.19 1.613.625 1.613 1.52 0 .843-.511 1.515-1.664 2.09-1.117.59-3.597.718-4.812.253-1.364-.508-1.907-1.82-1.235-3.047.543-1.007.977-1.152 3.235-1.054 1.1.047 2.383.16 2.863.238zM93.05 56.143c-2.223.332-4.368 1.883-5.313 3.847-.672 1.372-.894 2.473-.894 4.293.015 3.957 2.03 6.848 5.41 7.743 1.199.32 3.695.289 4.863-.08 2.496-.77 4.207-2.62 4.895-5.237.304-1.18.304-3.863 0-5.043-.48-1.87-1.793-3.707-3.297-4.633-1.278-.78-3.825-1.18-5.664-.89zm3.28 3.207c1.39.703 2.083 2.347 2.083 4.918 0 3.32-1.348 5.11-3.824 5.11-1.41 0-2.32-.45-3.008-1.485-.676-1.008-.9-2.203-.817-4.266.14-3.207 1.293-4.613 3.805-4.63.785 0 1.234.099 1.762.353zm11.747-3.227c-1.074.16-2.563.848-3.25 1.489-1.297 1.226-1.695 3.48-.91 5.14.62 1.34 1.484 1.93 4.176 2.793 1.933.62 2.35.828 2.78 1.37.657.849.243 1.935-.894 2.318-.816.27-3.25.093-4.578-.336-.797-.254-1.148-.29-1.308-.16-.16.128-.723 1.917-.723 2.3 0 .192 1.344.75 2.35.989.787.19 1.619.238 3.009.19 1.684-.062 2.05-.128 2.914-.511 1.12-.508 2.29-1.63 2.688-2.586.35-.843.465-2.25.258-3.03-.434-1.614-1.473-2.411-4.403-3.403-2.336-.797-3.136-1.34-3.136-2.121 0-1.118.707-1.567 2.51-1.567.77 0 1.716.13 2.435.32.832.239 1.23.286 1.375.16.113-.097.32-.656.48-1.23.258-1.023.243-1.086-.03-1.293-.42-.304-1.712-.636-3.09-.832-1.344-.172-1.505-.172-2.653 0zm0 0"/></svg>

